<svg xmlns="http://www.w3.org/2000/svg" viewBox="0 0 1600 900" role="img" aria-labelledby="title desc">
  <title id="title">Community Cleanup Placeholder</title>
  <desc id="desc">Placeholder image for Tampa Bay community cleanup after a storm.</desc>
  <defs>
    <linearGradient id="bg" x1="0" y1="0" x2="1" y2="1">
      <stop offset="0%" stop-color="#355070"/>
      <stop offset="100%" stop-color="#1b263b"/>
    </linearGradient>
  </defs>
  <rect width="1600" height="900" fill="url(#bg)"/>
  <rect y="610" width="1600" height="290" fill="#415a77"/>
  <rect x="110" y="520" width="210" height="90" rx="10" fill="#778da9"/>
  <rect x="370" y="480" width="260" height="130" rx="10" fill="#e0e1dd"/>
  <rect x="710" y="430" width="220" height="180" rx="10" fill="#778da9"/>
  <rect x="1000" y="500" width="300" height="110" rx="10" fill="#e0e1dd"/>
  <path d="M180 700 L230 590 L280 700 Z" fill="#0d1b2a"/>
  <rect x="220" y="635" width="16" height="56" fill="#52b788"/>
  <path d="M470 700 L520 575 L570 700 Z" fill="#0d1b2a"/>
  <rect x="511" y="620" width="18" height="70" fill="#f77f00"/>
  <path d="M850 700 L902 560 L956 700 Z" fill="#0d1b2a"/>
  <rect x="894" y="615" width="18" height="74" fill="#52b788"/>
  <path d="M1200 700 L1250 585 L1300 700 Z" fill="#0d1b2a"/>
  <rect x="1241" y="630" width="18" height="60" fill="#f77f00"/>
  <text x="80" y="120" fill="#f8fafc" font-size="48" font-family="Arial, sans-serif" font-weight="700">Community Section Image</text>
  <text x="80" y="180" fill="#dbe7f1" font-size="30" font-family="Arial, sans-serif">Replace this with your final cleanup/community image in</text>
  <text x="80" y="222" fill="#dbe7f1" font-size="30" font-family="Arial, sans-serif">public/images/community-cleanup.svg or .png</text>
</svg>
